<svg width="512" height="170" viewBox="0 0 512 170" fill="none" xmlns="http://www.w3.org/2000/svg">
<path d="M122.773 25.5H53.6533C39.3381 25.5 27.7333 37.0594 27.7333 51.3187V120.169C27.7333 134.428 39.3381 145.987 53.6533 145.987H122.773C137.089 145.987 148.693 134.428 148.693 120.169V51.3187C148.693 37.0594 137.089 25.5 122.773 25.5Z" stroke="#8AA4C5" stroke-width="7.551"/>
<path d="M70.9333 62.0766L49.3333 83.5922L70.9333 105.108" stroke="#E6EEF5" stroke-width="9.72" stroke-linecap="round" stroke-linejoin="round"/>
<path d="M90.3733 107.259V68.5312" stroke="#E6EEF5" stroke-width="5.39" stroke-linecap="round" stroke-linejoin="round"/>
<path d="M92.5333 83.5922H88.2133C86.4239 83.5922 84.9733 85.0371 84.9733 86.8195V99.7289C84.9733 101.511 86.4239 102.956 88.2133 102.956H92.5333C94.3227 102.956 95.7733 101.511 95.7733 99.7289V86.8195C95.7733 85.0371 94.3227 83.5922 92.5333 83.5922Z" fill="#8AA4C5"/>
<path d="M107.653 111.562V57.7734" stroke="#E6EEF5" stroke-width="5.39" stroke-linecap="round" stroke-linejoin="round"/>
<path d="M109.813 77.1375H105.493C103.704 77.1375 102.253 78.5824 102.253 80.3648V99.7289C102.253 101.511 103.704 102.956 105.493 102.956H109.813C111.603 102.956 113.053 101.511 113.053 99.7289V80.3648C113.053 78.5824 111.603 77.1375 109.813 77.1375Z" fill="#8AA4C5"/>
<path d="M124.933 115.866V49.1672" stroke="#E6EEF5" stroke-width="5.39" stroke-linecap="round" stroke-linejoin="round"/>
<path d="M127.093 70.6828H122.773C120.984 70.6828 119.533 72.1277 119.533 73.9102V99.7289C119.533 101.511 120.984 102.956 122.773 102.956H127.093C128.883 102.956 130.333 101.511 130.333 99.7289V73.9102C130.333 72.1277 128.883 70.6828 127.093 70.6828Z" fill="#8AA4C5"/>
<path d="M210.266 87.8106H200.45L200.398 82.4041H208.639C210.091 82.4041 211.281 82.2204 212.208 81.853C213.135 81.468 213.826 80.9169 214.281 80.1995C214.754 79.4647 214.99 78.5723 214.99 77.5225C214.99 76.3327 214.762 75.3704 214.308 74.6356C213.87 73.9007 213.179 73.367 212.234 73.0346C211.307 72.7022 210.108 72.5359 208.639 72.5359H203.18V104.581H195.306V66.3683H208.639C210.861 66.3683 212.847 66.5783 214.596 66.9982C216.363 67.4181 217.859 68.0568 219.084 68.9141C220.309 69.7715 221.245 70.8563 221.892 72.1685C222.54 73.4633 222.863 75.003 222.863 76.7877C222.863 78.3624 222.505 79.8146 221.787 81.1443C221.087 82.4741 219.976 83.5589 218.454 84.3987C216.95 85.2386 214.981 85.7022 212.549 85.7897L210.266 87.8106ZM209.925 104.581H198.298L201.369 98.4399H209.925C211.307 98.4399 212.435 98.2212 213.31 97.7837C214.185 97.3288 214.832 96.7164 215.252 95.9466C215.672 95.1767 215.882 94.2931 215.882 93.2958C215.882 92.176 215.69 91.205 215.305 90.3826C214.937 89.5603 214.343 88.9304 213.52 88.493C212.698 88.0381 211.613 87.8106 210.266 87.8106H202.681L202.733 82.4041H212.182L213.993 84.53C216.32 84.495 218.192 84.9061 219.609 85.7635C221.044 86.6033 222.085 87.6969 222.732 89.0441C223.397 90.3914 223.73 91.8349 223.73 93.3746C223.73 95.8241 223.196 97.8887 222.129 99.5684C221.061 101.231 219.495 102.482 217.431 103.321C215.384 104.161 212.882 104.581 209.925 104.581ZM244.939 98.1774V85.5273C244.939 84.6174 244.791 83.8388 244.493 83.1915C244.196 82.5266 243.732 82.0104 243.102 81.643C242.49 81.2756 241.694 81.0919 240.714 81.0919C239.874 81.0919 239.148 81.2406 238.536 81.538C237.923 81.818 237.451 82.2291 237.118 82.7715C236.786 83.2964 236.62 83.9176 236.62 84.6349H229.061C229.061 83.4277 229.341 82.2816 229.901 81.1968C230.461 80.112 231.274 79.1585 232.342 78.3361C233.409 77.4963 234.678 76.8401 236.147 76.3677C237.635 75.8953 239.297 75.6591 241.134 75.6591C243.338 75.6591 245.298 76.0265 247.013 76.7614C248.727 77.4963 250.075 78.5986 251.055 80.0683C252.052 81.538 252.55 83.3752 252.55 85.5798V97.7313C252.55 99.2885 252.647 100.566 252.839 101.563C253.032 102.543 253.312 103.4 253.679 104.135V104.581H246.042C245.674 103.811 245.394 102.849 245.202 101.694C245.027 100.522 244.939 99.3497 244.939 98.1774ZM245.937 87.2857L245.989 91.5637H241.764C240.766 91.5637 239.9 91.6774 239.165 91.9048C238.431 92.1323 237.827 92.456 237.355 92.8759C236.882 93.2783 236.532 93.7507 236.305 94.2931C236.095 94.8355 235.99 95.4304 235.99 96.0778C235.99 96.7252 236.139 97.3113 236.436 97.8362C236.733 98.3436 237.162 98.7461 237.722 99.0435C238.282 99.3235 238.938 99.4634 239.69 99.4634C240.828 99.4634 241.816 99.236 242.656 98.7811C243.496 98.3261 244.143 97.7663 244.598 97.1014C245.071 96.4365 245.316 95.8066 245.333 95.2117L247.328 98.4136C247.048 99.131 246.663 99.8746 246.173 100.644C245.701 101.414 245.097 102.14 244.362 102.823C243.627 103.488 242.744 104.039 241.711 104.476C240.679 104.896 239.454 105.106 238.037 105.106C236.235 105.106 234.599 104.747 233.129 104.03C231.677 103.295 230.522 102.289 229.665 101.012C228.825 99.7171 228.405 98.2474 228.405 96.6027C228.405 95.1155 228.685 93.7945 229.245 92.6397C229.805 91.4849 230.627 90.5139 231.712 89.7265C232.814 88.9216 234.188 88.318 235.832 87.9156C237.477 87.4957 239.384 87.2857 241.554 87.2857H245.937ZM270.558 99.201C271.486 99.201 272.308 99.026 273.026 98.6761C273.743 98.3087 274.303 97.8012 274.705 97.1539C275.125 96.489 275.344 95.7104 275.361 94.8181H282.474C282.456 96.8127 281.923 98.5886 280.873 100.146C279.823 101.686 278.415 102.902 276.647 103.794C274.88 104.669 272.903 105.106 270.716 105.106C268.511 105.106 266.587 104.739 264.942 104.004C263.315 103.269 261.959 102.254 260.874 100.959C259.789 99.6472 258.976 98.1249 258.433 96.3928C257.891 94.6431 257.62 92.7709 257.62 90.7763V90.0152C257.62 88.0031 257.891 86.1309 258.433 84.3987C258.976 82.6491 259.789 81.1268 260.874 79.8321C261.959 78.5198 263.315 77.4963 264.942 76.7614C266.569 76.0265 268.476 75.6591 270.663 75.6591C272.991 75.6591 275.029 76.1053 276.779 76.9976C278.546 77.8899 279.928 79.1672 280.925 80.8294C281.94 82.4741 282.456 84.425 282.474 86.6821H275.361C275.344 85.7372 275.143 84.8799 274.758 84.11C274.39 83.3402 273.848 82.7278 273.13 82.2729C272.431 81.8005 271.565 81.5643 270.532 81.5643C269.43 81.5643 268.529 81.8005 267.829 82.2729C267.129 82.7278 266.587 83.3577 266.202 84.1625C265.817 84.9499 265.546 85.851 265.388 86.8658C265.248 87.8631 265.178 88.9129 265.178 90.0152V90.7763C265.178 91.8786 265.248 92.9372 265.388 93.952C265.528 94.9668 265.791 95.8679 266.176 96.6552C266.578 97.4426 267.129 98.0637 267.829 98.5186C268.529 98.9735 269.439 99.201 270.558 99.201ZM294.865 64.2425V104.581H287.307V64.2425H294.865ZM312.764 76.184L300.429 90.2514L293.815 96.9439L291.06 91.4849L296.309 84.8187L303.684 76.184H312.764ZM304.917 104.581L296.519 91.4587L301.741 86.892L313.631 104.581H304.917Z" fill="#E6EEF5"/>
<path d="M345.084 66.6403V104.853H337.237V66.6403H345.084ZM356.842 66.6403V72.8079H325.663V66.6403H356.842ZM367.029 82.6498V104.853H359.47V76.456H366.583L367.029 82.6498ZM375.585 76.2723L375.454 83.2797C375.086 83.2272 374.64 83.1835 374.115 83.1485C373.608 83.096 373.144 83.0698 372.724 83.0698C371.657 83.0698 370.73 83.2097 369.942 83.4897C369.172 83.7521 368.525 84.1458 368 84.6707C367.493 85.1956 367.108 85.8343 366.845 86.5866C366.6 87.339 366.46 88.1963 366.425 89.1586L364.903 88.6862C364.903 86.8491 365.087 85.1606 365.454 83.6209C365.822 82.0637 366.355 80.7077 367.055 79.5529C367.773 78.3981 368.648 77.5058 369.68 76.8759C370.712 76.246 371.893 75.9311 373.223 75.9311C373.643 75.9311 374.072 75.9661 374.509 76.0361C374.946 76.0886 375.305 76.1673 375.585 76.2723ZM394.039 98.4494V85.7993C394.039 84.8894 393.89 84.1108 393.593 83.4634C393.296 82.7986 392.832 82.2824 392.202 81.915C391.59 81.5476 390.793 81.3638 389.814 81.3638C388.974 81.3638 388.248 81.5126 387.635 81.81C387.023 82.0899 386.551 82.5011 386.218 83.0435C385.886 83.5684 385.719 84.1896 385.719 84.9069H378.161C378.161 83.6996 378.441 82.5536 379.001 81.4688C379.561 80.384 380.374 79.4304 381.441 78.6081C382.509 77.7683 383.777 77.1121 385.247 76.6397C386.734 76.1673 388.396 75.9311 390.234 75.9311C392.438 75.9311 394.398 76.2985 396.112 77.0334C397.827 77.7683 399.174 78.8705 400.154 80.3403C401.152 81.81 401.65 83.6472 401.65 85.8517V98.0032C401.65 99.5604 401.746 100.838 401.939 101.835C402.131 102.815 402.411 103.672 402.779 104.407V104.853H395.141C394.774 104.083 394.494 103.121 394.302 101.966C394.127 100.794 394.039 99.6217 394.039 98.4494ZM395.036 87.5577L395.089 91.8356H390.863C389.866 91.8356 389 91.9494 388.265 92.1768C387.53 92.4043 386.927 92.728 386.454 93.1479C385.982 93.5503 385.632 94.0227 385.404 94.5651C385.195 95.1075 385.09 95.7024 385.09 96.3498C385.09 96.9972 385.238 97.5833 385.536 98.1082C385.833 98.6156 386.262 99.018 386.822 99.3155C387.382 99.5954 388.038 99.7354 388.79 99.7354C389.927 99.7354 390.916 99.508 391.756 99.053C392.596 98.5981 393.243 98.0382 393.698 97.3734C394.17 96.7085 394.415 96.0786 394.433 95.4837L396.427 98.6856C396.147 99.403 395.763 100.147 395.273 100.916C394.8 101.686 394.197 102.412 393.462 103.095C392.727 103.76 391.843 104.311 390.811 104.748C389.779 105.168 388.554 105.378 387.137 105.378C385.335 105.378 383.699 105.019 382.229 104.302C380.777 103.567 379.622 102.561 378.764 101.284C377.925 99.9891 377.505 98.5194 377.505 96.8747C377.505 95.3875 377.785 94.0665 378.345 92.9117C378.904 91.7569 379.727 90.7858 380.812 89.9985C381.914 89.1936 383.287 88.59 384.932 88.1876C386.577 87.7676 388.484 87.5577 390.654 87.5577H395.036ZM424.697 98.6594V64.5407H432.308V104.853H425.458L424.697 98.6594ZM406.746 90.9958V90.4446C406.746 88.275 406.991 86.3067 407.48 84.5395C407.97 82.7548 408.688 81.2239 409.633 79.9466C410.577 78.6693 411.741 77.6808 413.123 76.9809C414.505 76.281 416.08 75.9311 417.847 75.9311C419.509 75.9311 420.962 76.281 422.204 76.9809C423.464 77.6808 424.531 78.6781 425.406 79.9728C426.298 81.2501 427.016 82.7636 427.558 84.5132C428.1 86.2454 428.494 88.1438 428.739 90.2084V91.4157C428.494 93.3928 428.1 95.23 427.558 96.9272C427.016 98.6244 426.298 100.112 425.406 101.389C424.531 102.649 423.464 103.628 422.204 104.328C420.944 105.028 419.474 105.378 417.795 105.378C416.028 105.378 414.453 105.019 413.071 104.302C411.706 103.585 410.551 102.579 409.606 101.284C408.679 99.9891 407.97 98.4669 407.48 96.7172C406.991 94.9676 406.746 93.0604 406.746 90.9958ZM414.304 90.4446V90.9958C414.304 92.1681 414.392 93.2616 414.567 94.2764C414.759 95.2912 415.065 96.1923 415.485 96.9797C415.923 97.7495 416.483 98.3532 417.165 98.7906C417.865 99.2105 418.713 99.4205 419.711 99.4205C421.005 99.4205 422.073 99.1318 422.913 98.5544C423.752 97.9595 424.391 97.1459 424.828 96.1136C425.283 95.0813 425.546 93.8915 425.616 92.5443V89.1061C425.563 88.0038 425.406 87.0153 425.143 86.1404C424.898 85.2481 424.531 84.487 424.041 83.8571C423.569 83.2272 422.974 82.7373 422.256 82.3874C421.557 82.0375 420.725 81.8625 419.763 81.8625C418.783 81.8625 417.944 82.0899 417.244 82.5449C416.544 82.9823 415.975 83.5859 415.538 84.3558C415.118 85.1256 414.803 86.0355 414.593 87.0853C414.4 88.1176 414.304 89.2374 414.304 90.4446ZM451.734 105.378C449.529 105.378 447.552 105.028 445.802 104.328C444.052 103.611 442.565 102.622 441.34 101.363C440.133 100.103 439.206 98.6419 438.559 96.9797C437.911 95.3 437.587 93.5153 437.587 91.6257V90.5759C437.587 88.4238 437.894 86.4554 438.506 84.6707C439.118 82.8861 439.993 81.3376 441.131 80.0253C442.285 78.7131 443.685 77.707 445.33 77.0071C446.974 76.2898 448.829 75.9311 450.894 75.9311C452.906 75.9311 454.691 76.2635 456.248 76.9284C457.805 77.5933 459.108 78.5381 460.158 79.7629C461.226 80.9877 462.03 82.4574 462.573 84.1721C463.115 85.8692 463.386 87.7589 463.386 89.841V92.9904H440.816V87.9514H455.959V87.374C455.959 86.3242 455.767 85.3881 455.382 84.5657C455.014 83.7259 454.454 83.061 453.702 82.5711C452.95 82.0812 451.987 81.8362 450.815 81.8362C449.818 81.8362 448.96 82.055 448.243 82.4924C447.526 82.9298 446.939 83.5422 446.485 84.3295C446.047 85.1169 445.715 86.0442 445.487 87.1115C445.277 88.1613 445.172 89.3161 445.172 90.5759V91.6257C445.172 92.763 445.33 93.8128 445.645 94.7751C445.977 95.7374 446.441 96.5685 447.036 97.2684C447.648 97.9682 448.383 98.5106 449.24 98.8956C450.115 99.2805 451.104 99.473 452.206 99.473C453.571 99.473 454.839 99.2105 456.012 98.6856C457.201 98.1432 458.225 97.3296 459.082 96.2448L462.757 100.234C462.162 101.091 461.348 101.914 460.316 102.701C459.301 103.488 458.076 104.136 456.641 104.643C455.207 105.133 453.571 105.378 451.734 105.378Z" fill="#8AA4C5"/>
</svg>
