<svg width="512" height="512" viewBox="0 0 512 512" fill="none" xmlns="http://www.w3.org/2000/svg">
<path d="M384.002 31.9999H128.002C74.9825 31.9999 32.0018 74.9806 32.0018 128V384C32.0018 437.019 74.9825 480 128.002 480H384.002C437.021 480 480.002 437.019 480.002 384V128C480.002 74.9806 437.021 31.9999 384.002 31.9999Z" stroke="#8AA4C5" stroke-width="30.25"/>
<path d="M192.002 168L112.002 248L192.002 328" stroke="#0B0F14" stroke-width="20.25" stroke-linecap="round" stroke-linejoin="round"/>
<path d="M264.002 336V192" stroke="#0B0F14" stroke-width="15.25" stroke-linecap="round" stroke-linejoin="round"/>
<path d="M272.002 248H256.002C249.374 248 244.002 253.373 244.002 260V308C244.002 314.627 249.374 320 256.002 320H272.002C278.629 320 284.002 314.627 284.002 308V260C284.002 253.373 278.629 248 272.002 248Z" fill="#8AA4C5"/>
<path d="M328.002 352V152" stroke="#0B0F14" stroke-width="15.25" stroke-linecap="round" stroke-linejoin="round"/>
<path d="M336.002 224H320.002C313.374 224 308.002 229.373 308.002 236V308C308.002 314.627 313.374 320 320.002 320H336.002C342.629 320 348.002 314.627 348.002 308V236C348.002 229.373 342.629 224 336.002 224Z" fill="#8AA4C5"/>
<path d="M392.002 368V120" stroke="#0B0F14" stroke-width="15.25" stroke-linecap="round" stroke-linejoin="round"/>
<path d="M400.002 200H384.002C377.374 200 372.002 205.373 372.002 212V308C372.002 314.627 377.374 320 384.002 320H400.002C406.629 320 412.002 314.627 412.002 308V212C412.002 205.373 406.629 200 400.002 200Z" fill="#8AA4C5"/>
</svg>
